<svg width="20" height="32" viewBox="0 0 20 32" fill="none" xmlns="http://www.w3.org/2000/svg">
<path d="M12.6655 32H7.47764C7.02445 32 6.69052 31.8933 6.47585 31.68C6.28503 31.4904 6.18962 31.1704 6.18962 30.72V28.8H1.28801C0.834824 28.8 0.500894 28.7052 0.286225 28.5156C0.0954085 28.3022 0 27.9704 0 27.52V23.36C0 22.9096 0.0954085 22.5896 0.286225 22.4C0.500894 22.1867 0.834824 22.08 1.28801 22.08H10.9123C11.2224 22.08 11.449 21.9852 11.5921 21.7956C11.7591 21.5822 11.8426 21.3333 11.8426 21.0489C11.8426 20.6459 11.7591 20.3496 11.5921 20.16C11.449 19.9704 11.2224 19.8637 10.9123 19.84L5.54562 19.0933C3.87597 18.8563 2.52832 18.3111 1.50268 17.4578C0.500894 16.6044 0 15.1822 0 13.1911V9.45778C0 7.60889 0.548599 6.16296 1.6458 5.12C2.74299 4.05333 4.2576 3.43704 6.18962 3.27111V1.28C6.18962 0.82963 6.28503 0.50963 6.47585 0.32C6.69052 0.106667 7.02445 0 7.47764 0H12.6655C13.1187 0 13.4407 0.106667 13.6315 0.32C13.8462 0.50963 13.9535 0.82963 13.9535 1.28V3.2H17.424C17.8772 3.2 18.1992 3.30667 18.39 3.52C18.6047 3.70963 18.712 4.02963 18.712 4.48V8.71111C18.712 9.16148 18.6047 9.49333 18.39 9.70667C18.1992 9.8963 17.8772 9.99111 17.424 9.99111H9.08766C8.77758 9.99111 8.53906 10.0978 8.37209 10.3111C8.20513 10.5007 8.12165 10.7496 8.12165 11.0578C8.12165 11.3659 8.20513 11.6267 8.37209 11.84C8.53906 12.0533 8.77758 12.1719 9.08766 12.1956L14.4186 12.9067C16.0883 13.1437 17.4359 13.6889 18.4615 14.5422C19.4872 15.3956 20 16.8178 20 18.8089V22.5422C20 24.3437 19.4633 25.7778 18.39 26.8444C17.3166 27.9111 15.8378 28.5393 13.9535 28.7289V30.72C13.9535 31.1704 13.8462 31.4904 13.6315 31.68C13.4407 31.8933 13.1187 32 12.6655 32Z" fill="#1351B4"/>
</svg>
