<svg width="32" height="32" viewBox="0 0 32 32" fill="none" xmlns="http://www.w3.org/2000/svg">
<circle cx="16" cy="16" r="16" fill="#1351B4"/>
<path d="M15.4541 7.37423C15.6259 6.87526 16.3741 6.87526 16.5459 7.37423L18.5131 13.0865C18.5899 13.3096 18.8103 13.4607 19.059 13.4607H25.4249C25.9809 13.4607 26.2122 14.1321 25.7623 14.4405L20.6122 17.9708C20.411 18.1087 20.3268 18.3532 20.4037 18.5763L22.3708 24.2886C22.5427 24.7876 21.9374 25.2025 21.4875 24.8941L16.3374 21.3637C16.1362 21.2258 15.8638 21.2258 15.6626 21.3637L10.5125 24.8941C10.0626 25.2025 9.45734 24.7876 9.62918 24.2886L11.5963 18.5763C11.6732 18.3532 11.589 18.1087 11.3878 17.9708L6.23772 14.4405C5.78785 14.1321 6.01905 13.4607 6.57512 13.4607H12.941C13.1897 13.4607 13.4101 13.3096 13.4869 13.0865L15.4541 7.37423Z" fill="#FBFDFF"/>
</svg>
