<svg width="21" height="20" viewBox="0 0 21 20" fill="none" xmlns="http://www.w3.org/2000/svg">
<path d="M1.29542 7.064C1.48842 6.12032 1.82265 5.2279 2.27598 4.40888C1.82382 5.22722 1.48958 6.11975 1.29542 7.064ZM16.67 16H3.49847L4.79136 14.7071L5.08426 14.4142V14V9C5.08426 6.26874 6.49863 4.20184 8.81481 3.65306L9.58426 3.47075V2.68V2C9.58426 1.72228 9.80654 1.5 10.0843 1.5C10.362 1.5 10.5843 1.72228 10.5843 2V2.68V3.47011L11.3529 3.65288C13.6605 4.20153 15.0843 6.27963 15.0843 9V14V14.4142L15.3772 14.7071L16.67 16Z" stroke="#2670E8" stroke-width="2"/>
</svg>
