<svg width="15" height="14" viewBox="0 0 15 14" fill="none" xmlns="http://www.w3.org/2000/svg">
<path d="M13.0514 0.335938H1.80953C1.03665 0.335938 0.411323 0.936673 0.411323 1.6709L0.404297 13.6856L3.21475 11.0157H13.0514C13.8242 11.0157 14.4566 10.4149 14.4566 9.68071V1.6709C14.4566 0.936673 13.8242 0.335938 13.0514 0.335938ZM4.61998 8.34574H3.21475V7.01077H4.61998V8.34574ZM4.61998 6.34329H3.21475V5.00832H4.61998V6.34329ZM4.61998 4.34084H3.21475V3.00587H4.61998V4.34084ZM9.53828 8.34574H6.02521V7.01077H9.53828V8.34574ZM11.6461 6.34329H6.02521V5.00832H11.6461V6.34329ZM11.6461 4.34084H6.02521V3.00587H11.6461V4.34084Z" fill="#1351B4"/>
</svg>
