<svg width="33" height="32" viewBox="0 0 33 32" fill="none" xmlns="http://www.w3.org/2000/svg">
<path fill-rule="evenodd" clip-rule="evenodd" d="M13.0666 0C12.1829 0 11.4666 0.716345 11.4666 1.6V10.6669H2.3998C1.51615 10.6669 0.799805 11.3833 0.799805 12.2669V19.7336C0.799805 20.6173 1.51615 21.3336 2.39981 21.3336H11.4666V30.4C11.4666 31.2837 12.1829 32 13.0666 32H20.5333C21.4169 32 22.1333 31.2837 22.1333 30.4V21.3336H31.1998C32.0835 21.3336 32.7998 20.6172 32.7998 19.7336V12.2669C32.7998 11.3833 32.0835 10.6669 31.1998 10.6669H22.1333V1.6C22.1333 0.716344 21.4169 0 20.5333 0H13.0666Z" fill="#1351B4"/>
</svg>
