<svg width="16" height="16" viewBox="0 0 16 16" fill="none" xmlns="http://www.w3.org/2000/svg">
<rect width="16" height="16" rx="8" fill="#E81F67"/>
<path d="M12.164 6.27046C12.164 6.09877 12.1586 5.94318 12.1694 5.78759C12.1694 5.74466 12.2069 5.69101 12.2445 5.67491C12.2767 5.65882 12.3357 5.66955 12.3679 5.69101C12.3947 5.7071 12.4162 5.75539 12.4215 5.79295C12.4269 6.03439 12.4269 6.27046 12.4215 6.5119C12.4215 6.62994 12.3089 6.67823 12.2069 6.60848C12.0567 6.50654 11.9065 6.4046 11.7562 6.30265C11.4558 6.09877 11.1553 5.88953 10.8549 5.68564C10.4686 5.42274 10.1949 5.074 10.0715 4.61795C9.9213 4.06532 10.0071 3.54488 10.3344 3.0781C10.6456 2.62741 11.0802 2.35378 11.6275 2.29476C12.3786 2.21428 12.9956 2.49328 13.4034 3.13175C13.838 3.80778 13.8058 4.49991 13.3766 5.17594C13.3175 5.26715 13.2424 5.34763 13.1673 5.42811C13.0815 5.52468 13.0064 5.53541 12.942 5.4764C12.883 5.41738 12.8937 5.34226 12.9795 5.25642C13.1083 5.12765 13.2102 4.97742 13.2961 4.8111C13.6663 4.05995 13.3336 3.08346 12.5825 2.71326C11.7401 2.30013 10.7851 2.63814 10.3934 3.49123C10.1091 4.11361 10.2861 4.92377 10.828 5.34226C11.2036 5.63199 11.606 5.88953 11.9977 6.16316C12.046 6.18998 12.0996 6.22218 12.164 6.27046Z" fill="#FBFDFF"/>
<path d="M12.594 3.75232C12.653 3.75232 12.7067 3.70403 12.7067 3.63965C12.7067 3.58063 12.6584 3.52697 12.594 3.52697H11.9609V3.29626C11.9609 3.23725 11.9126 3.18359 11.8482 3.18359C11.7892 3.18359 11.7355 3.23188 11.7355 3.29626V3.52697H11.1078C11.0488 3.52697 10.9951 3.57526 10.9951 3.63965C10.9951 3.69866 11.0434 3.75232 11.1078 3.75232H11.3761C11.3975 3.84889 11.478 4.11716 11.698 4.38542C11.5585 4.51419 11.3814 4.63223 11.14 4.71807C11.081 4.73953 11.0541 4.80392 11.0756 4.85757C11.0917 4.90049 11.1346 4.93269 11.1775 4.93269C11.1883 4.93269 11.2044 4.93269 11.2151 4.92732C11.4887 4.83075 11.6926 4.69125 11.8536 4.54638C12.0092 4.69125 12.2184 4.83075 12.492 4.92732C12.5028 4.93269 12.5189 4.93269 12.5296 4.93269C12.5725 4.93269 12.6154 4.90586 12.6315 4.85757C12.653 4.79855 12.6208 4.73417 12.5672 4.71807C12.3257 4.63223 12.1433 4.51419 12.0092 4.38542C12.2291 4.11716 12.3096 3.84889 12.3311 3.75232H12.594ZM11.8482 4.2191C11.698 4.03131 11.6336 3.84889 11.6014 3.74695H12.0896C12.0682 3.84889 11.9984 4.03131 11.8482 4.2191Z" fill="#FBFDFF"/>
<path fill-rule="evenodd" clip-rule="evenodd" d="M6.57143 10.567C6.57143 11.3786 6.14837 12.0915 5.51073 12.497L3.68924 13.7433V12.7741C2.71613 12.5117 2 11.623 2 10.567C2 9.3046 3.02335 8.28125 4.28571 8.28125C5.54808 8.28125 6.57143 9.3046 6.57143 10.567ZM3.73105 11.3694C3.76664 11.2852 3.80222 11.2009 3.83594 11.1185C3.90512 11.1185 3.97429 11.118 4.04359 11.1175C4.25195 11.1161 4.46137 11.1147 4.67501 11.126C4.70498 11.126 4.74243 11.1634 4.75742 11.1934L4.95969 11.6654C5.01214 11.7852 5.10953 11.8302 5.20692 11.7852C5.30431 11.7403 5.32679 11.6429 5.28184 11.523C5.23689 11.4107 5.18446 11.2908 5.13202 11.1709L5.132 11.1709C5.01963 10.9087 4.90726 10.6446 4.79488 10.3805C4.6825 10.1165 4.57013 9.85237 4.45775 9.59016C4.39032 9.43283 4.25547 9.38788 4.15808 9.48528C4.12811 9.51524 4.10564 9.56019 4.09065 9.59765L4.09058 9.59783C3.82839 10.2271 3.56621 10.8563 3.30402 11.4931C3.28155 11.5305 3.26657 11.5755 3.26657 11.6129C3.25907 11.6953 3.29653 11.7553 3.37145 11.7852C3.44637 11.8152 3.52128 11.8002 3.57373 11.7253C3.5962 11.6953 3.61119 11.6579 3.62617 11.6204C3.65988 11.538 3.69547 11.4537 3.73105 11.3694ZM3.98577 10.7589C4.07567 10.5341 4.16557 10.3094 4.27046 10.0621C4.31863 10.1757 4.36521 10.2829 4.41095 10.3881C4.4648 10.5121 4.51746 10.6333 4.57013 10.7589H3.98577Z" fill="#FBFDFF"/>
<path d="M5.47461 10.4875C5.86037 10.9162 6.28899 11.2162 6.76047 11.4305C6.54616 11.0019 6.33185 10.6161 6.07468 10.1875C5.90323 10.2732 5.68892 10.3589 5.47461 10.4875Z" fill="#FBFDFF"/>
<path d="M8.21777 4.52734V6.32754C8.64639 6.24182 9.11787 6.19896 9.54649 6.11323C9.24646 5.42744 8.94643 4.78452 8.21777 4.52734Z" fill="#FBFDFF"/>
<path d="M8.17383 9.84375V11.6011C8.68817 11.5582 9.20251 11.001 9.50255 10.0152C9.07393 9.97234 8.64531 9.88661 8.17383 9.84375Z" fill="#FBFDFF"/>
<path d="M9.24707 11.4305C9.71855 11.259 10.1472 10.9162 10.5329 10.4875C10.2758 10.3589 10.0614 10.2732 9.89 10.1875C9.67569 10.6161 9.46138 11.0019 9.24707 11.4305Z" fill="#FBFDFF"/>
<path d="M7.7877 11.6439V9.84375C7.35908 9.88661 6.93047 9.97234 6.45898 10.0152C6.75902 10.7439 7.05905 11.3868 7.7877 11.6439Z" fill="#FBFDFF"/>
<path d="M6.32954 9.66943C6.84389 9.58371 7.31537 9.54085 7.78685 9.45512V8.29785C7.22964 8.29785 6.7153 8.29785 6.11523 8.29785C6.20096 8.76933 6.28668 9.24081 6.32954 9.66943Z" fill="#FBFDFF"/>
<path d="M5.77337 8.29785H4.57324C4.6161 9.0265 4.83041 9.62657 5.21617 10.1838C5.5162 10.0552 5.73051 9.9266 5.98768 9.84088C5.94482 9.28367 5.8591 8.81219 5.77337 8.29785Z" fill="#FBFDFF"/>
<path d="M6.02968 6.37024C5.77251 6.24165 5.51533 6.11307 5.25816 6.02734C4.87241 6.58455 4.6581 7.22748 4.61523 7.91327H5.81537C5.85823 7.35606 5.94395 6.88458 6.02968 6.37024Z" fill="#FBFDFF"/>
<path d="M6.75938 4.78418C6.24504 4.99849 5.85928 5.29852 5.43066 5.72714C5.68784 5.85573 5.90214 5.94145 6.07359 6.02718C6.33076 5.55569 6.54507 5.16994 6.75938 4.78418Z" fill="#FBFDFF"/>
<path d="M6.50391 6.1561C6.93253 6.19896 7.36114 6.28468 7.78976 6.32754V4.52734C7.31828 4.57021 6.63249 5.51317 6.50391 6.1561Z" fill="#FBFDFF"/>
<path d="M6.16016 7.91444C6.76022 7.91444 7.27456 7.91444 7.83177 7.91444V6.71431C7.36029 6.62859 6.88881 6.58572 6.37447 6.5C6.28874 6.97148 6.20302 7.44296 6.16016 7.91444Z" fill="#FBFDFF"/>
<path d="M9.67508 6.5C9.16074 6.58572 8.68925 6.62859 8.21777 6.71431V7.91444H9.88939C9.80366 7.4001 9.71794 6.92862 9.67508 6.5Z" fill="#FBFDFF"/>
<path d="M9.84544 8.29785H8.17383V9.49798C8.64531 9.58371 9.11679 9.62657 9.63113 9.71229C9.71686 9.19795 9.80258 8.76933 9.84544 8.29785Z" fill="#FBFDFF"/>
<path d="M10.0156 9.79986C10.2728 9.92845 10.53 10.057 10.7871 10.1428C11.1729 9.58555 11.3872 8.94263 11.4301 8.25684H10.2299C10.1442 8.81404 10.0585 9.28552 10.0156 9.79986Z" fill="#FBFDFF"/>
<path d="M10.2299 7.91327H11.4301C11.3872 7.18461 11.1729 6.54169 10.7871 6.02734C10.53 6.15593 10.2728 6.28451 10.0156 6.37024C10.0585 6.88458 10.1442 7.39892 10.2299 7.91327Z" fill="#FBFDFF"/>
<path d="M10.5309 5.72801C10.5309 5.68515 10.5309 5.68515 10.5309 5.64229C10.1022 5.34225 9.67363 5.04222 9.24501 4.74219C9.24501 4.74219 9.24501 4.78505 9.20215 4.78505C9.41646 5.17081 9.63077 5.59943 9.88794 6.02804C10.1022 5.89946 10.3166 5.81373 10.5309 5.72801Z" fill="#FBFDFF"/>
</svg>
