<svg width="38" height="32" viewBox="0 0 38 32" fill="none" xmlns="http://www.w3.org/2000/svg">
<path d="M8.10086 18.7672C7.56758 18.4676 6.90909 18.853 6.90909 19.4647V24.7407C6.90909 25.0299 7.06517 25.2966 7.31732 25.4382L18.6082 31.78C18.8515 31.9166 19.1485 31.9166 19.3918 31.78L30.6827 25.4382C30.9348 25.2966 31.0909 25.0299 31.0909 24.7407V19.4647C31.0909 18.853 30.4324 18.4676 29.8991 18.7672L19.3918 24.6688C19.1485 24.8055 18.8515 24.8055 18.6082 24.6688L8.10086 18.7672ZM19.3916 0.219862C19.1484 0.0833114 18.8516 0.0833106 18.6084 0.219861L1.24258 9.96908C0.698081 10.2748 0.698081 11.0586 1.24258 11.3643L18.6083 21.1135C18.8516 21.25 19.1484 21.25 19.3916 21.1134L33.3538 13.2736C33.887 12.9741 34.5455 13.3595 34.5455 13.9711V24.0889C34.5455 24.5307 34.9036 24.8889 35.3455 24.8889H37.2C37.6418 24.8889 38 24.5307 38 24.0889V11.135C38 10.8457 37.8439 10.579 37.5916 10.4374L19.3916 0.219862Z" fill="#1351B4"/>
</svg>
