<svg width="16" height="16" viewBox="0 0 16 16" fill="none" xmlns="http://www.w3.org/2000/svg">
<rect width="16" height="16" rx="8" fill="#F67C0A"/>
<path d="M6.46443 10.2735C6.55026 10.1513 6.6362 10.029 6.72203 9.90635C6.71185 10.1487 6.69848 10.3929 6.68193 10.6371C6.67995 10.6401 6.67737 10.6439 6.67397 10.6487C6.66949 10.6549 6.6653 10.6605 6.65993 10.6676C6.65822 10.6699 6.6564 10.6723 6.65441 10.6749C6.25484 11.1914 5.85595 11.7071 5.45717 12.2128L5.45717 12.2128L5.45634 12.2139C5.43323 12.2436 5.40762 12.2792 5.38545 12.31C5.37398 12.326 5.36342 12.3406 5.35461 12.3525C5.32397 12.394 5.29856 12.4248 5.27322 12.4486C5.2406 12.4791 5.20701 12.5002 5.15421 12.5052L5.09707 12.4671C5.05366 12.3932 5.04862 12.362 5.04862 12.3473C5.04862 12.3336 5.05277 12.3013 5.11388 12.214L5.11431 12.2134L5.84561 11.1603L5.84561 11.1603L5.84607 11.1596C6.0502 10.8631 6.25684 10.569 6.46413 10.2739L6.46443 10.2735Z" fill="#FBFDFF" stroke="white" stroke-width="0.410707"/>
<path d="M10.5102 11.9284L10.51 11.9285L10.5156 11.9357C10.6106 12.0593 10.7001 12.1853 10.7701 12.3167L10.7742 12.3243L10.7789 12.3316C10.8306 12.4115 10.815 12.4852 10.7605 12.5328C10.6889 12.5779 10.6027 12.5655 10.5489 12.4951L10.549 12.4951L10.5459 12.4912C10.3077 12.1947 10.0718 11.8956 9.83526 11.5956L9.83496 11.5952C9.60045 11.2979 9.36528 10.9997 9.12762 10.7037L9.12437 10.6989L9.11736 10.6885C9.1078 10.4589 9.0961 10.2273 9.08446 9.99681L9.08443 9.99632C9.08298 9.9675 9.08152 9.93868 9.08007 9.90989C9.25772 10.161 9.43579 10.4114 9.61371 10.6617L9.6139 10.662C9.9138 11.0838 10.2132 11.5049 10.5102 11.9284Z" fill="#FBFDFF" stroke="white" stroke-width="0.410707"/>
<path d="M8.33314 4.21248C8.57661 4.45595 8.57661 4.85069 8.33314 5.09416C8.08967 5.33763 7.69493 5.33763 7.45146 5.09416C7.208 4.85069 7.208 4.45595 7.45146 4.21248C7.69493 3.96901 8.08967 3.96901 8.33314 4.21248Z" fill="#FBFDFF" stroke="white" stroke-width="0.410707"/>
<path d="M9.61807 5.7605C9.65441 5.74714 9.69052 5.73184 9.72603 5.7142C10.056 5.55891 10.3899 5.40178 10.7146 5.23455L11.7565 4.70874L11.7571 4.7084L12.1657 4.50411C12.1657 4.50411 12.167 4.50353 12.17 4.50226L12.1845 4.49635L12.2059 4.48763C12.2137 4.48437 12.2237 4.47999 12.2342 4.47473L12.4683 4.35772C12.5262 4.32875 12.5864 4.35117 12.612 4.40239C12.641 4.46034 12.6186 4.52055 12.5673 4.54616L12.5673 4.54604L12.5608 4.54955L12.4536 4.60806L12.4536 4.60804L12.4509 4.60956C12.0016 4.8635 11.5604 5.11781 11.12 5.37161C10.9043 5.49596 10.6887 5.6202 10.4725 5.74422C10.467 5.74648 10.4615 5.74878 10.4566 5.75084C10.4526 5.75252 10.449 5.75403 10.446 5.75525C10.434 5.76022 10.4246 5.76394 10.4161 5.76689C10.4026 5.7716 10.3966 5.77243 10.396 5.77255C10.1323 5.77255 9.8742 5.77247 9.61807 5.7605Z" fill="#FBFDFF" stroke="white" stroke-width="0.410707"/>
<path d="M12.6098 6.11819H11.2642C10.7182 6.11819 10.1722 6.10845 9.62614 6.0987C9.28487 6.08894 8.9436 6.04019 8.60233 5.99144C8.12455 5.92318 7.63703 5.92319 7.15925 6.00119C6.3597 6.1377 5.5504 6.10844 4.74111 6.12795C4.72161 6.12795 4.71186 6.12795 4.69235 6.12795H3.38578C3.22977 6.12795 3.09326 6.2547 3.09326 6.42046C3.09326 6.57647 3.21027 6.69348 3.36628 6.70323C3.45403 6.72273 3.55154 6.71298 3.63929 6.71298C4.57535 6.71298 5.5114 6.71298 6.44746 6.71298C6.77898 6.71298 6.95449 6.88849 6.96424 7.22001C6.96424 7.31752 6.97399 7.41502 6.98374 7.50278L7.03249 8.42908L7.04224 8.66309C7.10074 9.32613 7.05199 9.97942 7.02274 10.6425C6.97399 11.481 6.93499 12.3098 6.89598 13.1484C6.89598 13.1581 6.89598 13.1679 6.89598 13.1776V13.2361C6.88623 13.3044 6.91548 13.3726 6.95449 13.4311C6.95449 13.4311 6.95449 13.4311 6.95449 13.4409C7.00324 13.4994 7.07149 13.5481 7.15925 13.5481C7.169 13.5481 7.169 13.5481 7.17875 13.5481C7.32501 13.5481 7.45177 13.4311 7.47127 13.2751L7.55902 12.0075C7.65653 11.1982 7.75403 10.3889 7.85154 9.57965C7.85154 9.54064 7.89054 9.51139 7.91979 9.47239C7.93929 9.51139 7.98805 9.5504 7.98805 9.5894C8.0563 10.1257 8.1148 10.662 8.18306 11.1982L8.39757 13.2849C8.41707 13.4311 8.53408 13.5481 8.68034 13.5481C8.69009 13.5481 8.69984 13.5481 8.70959 13.5481C8.8656 13.5286 8.9826 13.3921 8.9631 13.2361L8.9241 12.8071C8.8851 11.4518 8.72909 10.1062 8.78759 8.7606V8.7411C8.78759 8.64359 8.79734 8.54609 8.80709 8.44858L8.81685 8.31207L8.8266 8.20482L8.85585 7.74654C8.85585 7.69779 8.8656 7.65879 8.8656 7.61003C8.87535 7.44427 8.87535 7.28826 8.89485 7.12251C8.91435 6.89824 9.11911 6.73248 9.35313 6.73248C9.8114 6.73248 10.2697 6.73248 10.7182 6.73248C11.235 6.73248 11.7518 6.73248 12.2588 6.73248C12.2978 6.73248 12.3465 6.73248 12.3856 6.72273H12.6196C12.7756 6.72273 12.9121 6.59597 12.9121 6.43021C12.9023 6.2547 12.7756 6.11819 12.6098 6.11819Z" fill="white"/>
<path d="M4.14345 5.05518C3.93827 4.93649 3.7323 4.81734 3.52425 4.69841V4.68101L3.41072 4.62425L3.37173 4.60475C3.37173 4.60475 3.37172 4.60475 3.37172 4.60475C3.37172 4.60475 3.37172 4.60475 3.37172 4.60475C3.32181 4.57979 3.29557 4.51799 3.31968 4.4565C3.34649 4.40848 3.40484 4.3882 3.46107 4.41632L3.46107 4.41632L3.61664 4.4941C4.02158 4.69901 4.42645 4.90144 4.8308 5.10362L4.83102 5.10373C5.23575 5.30609 5.63995 5.5082 6.04409 5.7127L6.0439 5.71307L6.05591 5.71822C6.09892 5.73665 6.14157 5.75298 6.1867 5.76613C5.96258 5.78125 5.73908 5.78561 5.51457 5.77297L5.51459 5.77264H5.50302C5.4428 5.77264 5.36963 5.75348 5.31023 5.72048L5.31 5.72035C4.91805 5.50327 4.53215 5.28004 4.14345 5.05518Z" fill="#FBFDFF" stroke="white" stroke-width="0.410707"/>
<path d="M12.3858 13.676H3.62008C3.25931 13.676 2.9668 13.3835 2.9668 13.0227V4.3447C2.9668 3.98392 3.25931 3.69141 3.62008 3.69141H12.3858C12.7466 3.69141 13.0391 3.98392 13.0391 4.3447V13.0227C13.0391 13.3737 12.7466 13.676 12.3858 13.676ZM3.62008 3.96442C3.40557 3.96442 3.23981 4.13993 3.23981 4.3447V13.0227C3.23981 13.2372 3.41532 13.403 3.62008 13.403H12.3858C12.6004 13.403 12.7661 13.2275 12.7661 13.0227V4.3447C12.7661 4.13018 12.5906 3.96442 12.3858 3.96442H3.62008Z" fill="#FBFDFF"/>
<path d="M7.99833 13.7135C4.61488 13.7135 1.85547 10.954 1.85547 7.57059C1.85547 4.18714 4.61488 1.42773 7.99833 1.42773C11.3818 1.42773 14.1412 4.18714 14.1412 7.57059C14.1412 10.9638 11.3818 13.7135 7.99833 13.7135ZM7.99833 1.70075C4.76114 1.70075 2.12848 4.3334 2.12848 7.57059C2.12848 10.8078 4.76114 13.4404 7.99833 13.4404C11.2355 13.4404 13.8682 10.8078 13.8682 7.57059C13.8682 4.3334 11.2355 1.70075 7.99833 1.70075Z" fill="#FBFDFF"/>
</svg>
