<svg width="16" height="14" viewBox="0 0 16 14" fill="none" xmlns="http://www.w3.org/2000/svg">
<path fill-rule="evenodd" clip-rule="evenodd" d="M4.58903 4.85295C4.44491 5.06898 4.36364 5.3256 4.36364 5.6L4.36364 12.6C4.36364 12.8738 4.4464 13.1299 4.58903 13.3463C4.84752 13.7384 5.30265 14 5.81818 14L12.3636 14C12.9673 14 13.4836 13.65 13.7018 13.146L15.8982 8.211C15.9636 8.05 16 7.882 16 7.7L16 6.3C16 5.53 15.3455 4.9 14.5455 4.9L9.95636 4.9L10.6473 1.701L10.6691 1.477C10.6691 1.40094 10.6604 1.32635 10.644 1.25428C10.5984 1.05441 10.4934 0.873911 10.3491 0.735002L9.57818 1.56865e-06L4.79273 4.613C4.71542 4.68539 4.64712 4.76587 4.58903 4.85295ZM8.6035 3.22123L6.04358 5.6889L6.04358 12.3927L12.2112 12.3927L14.3201 7.65425L14.3201 6.50735L7.89378 6.50735L8.6035 3.22123ZM2.90909 5.6L-1.04533e-06 5.6L-2.61333e-06 14L2.90909 14L2.90909 5.6Z" fill="#1351B4"/>
</svg>
