<svg width="135" height="18" viewBox="0 0 135 18" fill="none" xmlns="http://www.w3.org/2000/svg">
<path d="M80.6034 17.0514C79.134 17.0208 77.4809 16.9903 76.6238 15.7069C76.4707 15.2791 75.7054 14.8208 75.9503 14.3319C77.0523 12.9569 76.7768 13.1097 78.0013 14.1791C80.2972 15.8903 83.7258 14.3625 81.1544 11.6125C79.8687 10.0541 77.5421 9.68747 76.5625 7.88469C75.0319 5.28747 77.5421 2.41525 80.1442 1.95692C81.9197 1.68192 83.6952 2.41525 85.0421 3.51525C86.4809 4.43192 85.5625 4.79858 84.8585 5.83747C84.5523 6.44858 82.5625 4.06525 81.736 4.03469C80.0829 3.39303 79.134 4.95136 80.0217 6.32636C81.4605 7.85414 84.0931 7.79303 85.134 9.8097C87.5829 13.8736 85.2564 17.2653 80.6034 17.0514Z" fill="#DBD300"/>
<path d="M69.5834 16.532C68.3895 16.5625 67.1956 16.5625 66.0017 16.5931C65.665 16.5931 65.665 16.5931 65.6344 16.257C65.3895 13.0792 65.8181 9.90142 65.6344 6.69309C65.5732 5.3792 65.6344 4.03475 65.665 2.72086C65.665 2.32364 65.8181 2.20142 66.216 2.23197C67.4711 2.59864 73.6242 1.52919 73.716 2.59864C74.0528 6.90697 73.8997 4.79864 68.8181 5.22642C68.2058 5.28753 67.5936 5.22642 66.9813 5.22642C66.5834 5.22642 66.7977 5.83753 66.7364 6.11253C66.6752 7.15142 66.6752 8.22086 66.6752 9.25975C66.6752 9.59586 67.0426 9.44308 67.2568 9.47364C68.0528 9.68753 72.216 8.98475 72.1242 9.80975C71.9711 10.2681 72.4609 11.9792 71.7262 11.7653C70.1344 11.6125 68.5426 11.7042 66.9507 11.857C66.7058 11.857 66.7058 11.857 66.7058 12.1014C66.6446 14.6681 66.5222 13.6597 69.1854 13.8125C70.563 13.782 71.9405 13.9042 73.3181 13.8431C73.6854 13.8431 73.8079 13.9653 73.7773 14.3014C73.6242 14.8514 74.0834 16.5014 73.3487 16.5625C72.0936 16.5625 70.8385 16.5625 69.5834 16.5625C69.5834 16.5625 69.5834 16.5625 69.5834 16.532Z" fill="#EC9010"/>
<path d="M59.8798 14.2017C57.7676 14.2323 55.6553 14.0795 53.5431 14.2017C53.1451 14.1712 53.4513 12.7962 53.3594 12.4295C53.3594 12.3378 53.3594 12.2462 53.5125 12.2462C55.1349 12.1239 56.788 12.0017 58.441 12.1851C58.7166 12.2462 58.7166 11.9101 58.7166 11.6962C58.5941 11.2073 59.0839 9.83227 58.3186 9.89339C56.7574 9.80172 55.2268 10.0156 53.6655 9.89339C53.3594 9.86283 53.3594 9.89339 53.3594 9.55728C53.3288 8.39616 53.39 7.2045 53.4207 6.04339C53.39 5.73783 53.6655 5.73783 53.8798 5.73783C55.8696 5.79894 57.8594 5.5545 59.8186 5.86005C60.0329 5.92116 60.2472 5.89061 60.2778 5.64616C60.339 5.12672 60.5839 2.71283 59.8798 2.74339C57.4921 2.46839 55.1349 2.98783 52.7472 2.74339C52.4104 2.74339 52.288 2.83505 52.288 3.17116C52.1349 6.13505 52.4411 9.06839 52.1962 12.0323C52.3186 12.7351 51.89 16.9517 52.5329 16.8295C54.737 16.7073 57.339 16.7378 59.7268 16.7989C60.1553 16.7989 60.2472 16.7073 60.2778 16.3101C60.1553 15.8517 60.737 14.1712 59.8798 14.2017Z" fill="#DBD300"/>
<path d="M25.9604 3.10968C26.0828 2.28468 24.8889 2.74301 24.3991 2.62079C24.0012 2.62079 24.0012 3.17079 24.0318 3.44579C24.0012 7.75412 23.8175 12.3069 23.8175 16.5541C23.8175 16.7375 23.7563 17.043 24.0624 17.043C24.6134 16.9513 25.8685 17.3791 25.8379 16.493C25.5624 12.0319 25.7767 7.57079 25.9604 3.10968Z" fill="#DBD300"/>
<path d="M39.4607 16.5543C39.277 15.8516 37.5934 14.9043 37.9301 14.2932C39.3689 11.3293 39.7056 7.41823 37.8689 4.54601C35.9709 1.30712 30.675 1.21546 28.6852 4.39323C24.6444 10.0766 28.2872 19.5182 36.124 16.3099C36.7362 15.821 36.7362 16.9516 37.4097 16.8599C37.7464 16.7377 39.7974 17.1043 39.4607 16.5543ZM36.7362 12.8571C36.7056 12.9182 36.7056 13.0099 36.5832 13.071C35.4199 11.1766 35.726 11.6349 33.5525 11.8488C33.1852 12.1238 35.0525 13.9877 35.2668 14.4766C35.4199 14.6905 35.4199 14.6905 35.2056 14.8127C33.8587 15.6682 32.0832 15.4238 30.7362 14.6905C27.9505 13.0099 27.9811 7.84601 30.0015 5.55434C35.2974 0.0543439 39.0321 8.02934 36.7362 12.8571Z" fill="#EC9010"/>
<path d="M9.98173 14.3542C7.37968 13.2237 8.38988 12.6737 6.55315 14.0792C3.12458 14.7515 3.12459 9.06812 4.28785 7.05146C6.18581 4.30146 6.79805 7.78479 7.68581 6.80702C8.14499 6.22646 8.66539 5.73757 9.24702 5.27924C9.61437 5.03479 9.52253 4.79035 9.24702 4.48479C7.13478 1.76535 3.33886 2.55979 1.96131 5.58479C-1.00807 10.1987 2.66539 20.1292 8.84907 16.3403C9.21642 15.9126 10.7776 14.7515 9.98173 14.3542Z" fill="#6C2F85"/>
<path d="M12.0938 12.2463C12.0938 11.4824 12.0938 10.7185 12.0938 9.95459C12.155 10.0157 12.155 10.0768 12.155 10.1685C12.1243 10.8101 12.2468 11.574 12.0938 12.2463Z" fill="#29632D"/>
<path d="M12.0938 9.86246C12.0938 9.80135 12.0937 9.77079 12.155 9.74023C12.155 9.80135 12.155 9.8319 12.0938 9.86246Z" fill="#336934"/>
<path d="M12.1855 8.42634C12.1855 8.39579 12.2162 8.39579 12.2468 8.36523C12.2162 8.39579 12.1855 8.42634 12.1855 8.42634Z" fill="#336934"/>
<path d="M22.319 16.6765C22.2883 16.4015 22.2577 16.1265 22.2271 15.8515C22.2271 15.2404 22.1047 14.6293 22.1659 14.0182C22.1659 13.8654 21.9516 13.8349 21.8598 13.8654C19.1659 13.7432 16.472 13.8654 13.7781 13.8043C13.319 10.4126 13.7169 6.65431 13.7475 3.17098C13.7781 2.65153 12.9822 2.95709 12.6455 2.86542C12.1863 2.83487 12.1863 2.86542 12.1863 3.32375C12.2781 7.54042 12.0332 11.7876 11.972 16.0043C12.0332 16.3404 11.7271 17.0738 12.2781 17.0432C15.5843 16.9515 18.9516 17.0126 22.2271 16.921C22.3496 16.8599 22.319 16.7682 22.319 16.6765Z" fill="#336934"/>
<path d="M133.993 16.196C132.401 11.6738 130.748 7.15155 129.34 2.53766C128.513 0.429331 127.962 3.85155 127.656 4.52378C126.676 7.18211 126.156 10.0543 125.299 12.7738C124.993 13.8738 124.717 14.9738 124.411 16.0738C124.289 16.5627 124.319 16.5932 124.778 16.5932C125.023 16.5932 125.023 16.5627 125.085 16.3182C125.544 14.9127 125.881 13.446 126.187 11.9793C126.248 11.6432 126.279 11.6127 126.646 11.6127C127.472 11.7654 130.809 11.246 130.993 11.7654C131.268 12.7127 131.727 13.5682 131.942 14.546C132.125 14.9738 132.279 16.746 132.83 16.5932C133.258 16.5016 134.421 16.8988 133.993 16.196ZM130.289 10.2071C129.768 10.0238 126.248 10.6654 126.676 9.93211C127.35 7.88489 127.717 5.71544 128.452 3.69878C129.248 5.65433 129.615 7.82378 130.381 9.80989C130.503 9.99322 130.534 10.2071 130.289 10.2071Z" fill="#29632E"/>
<path d="M122.788 16.3487C122.696 16.1042 122.911 15.5237 122.543 15.4931C120.829 15.4931 119.115 15.432 117.4 15.3709C116.972 15.3403 117.217 14.2403 117.125 13.9042C117.217 12.1931 117.186 10.482 117.156 8.77089C116.972 6.66256 117.4 4.3709 117.186 2.35423C117.186 2.35423 117.186 2.35423 117.156 2.38479L117.186 2.35423C117.094 2.23201 116.941 2.23201 116.819 2.26257C115.717 2.4459 114.554 2.20145 113.482 2.1709C113.329 2.23201 113.298 2.35423 113.329 2.47645C113.36 4.43201 113.513 6.38756 113.513 8.34312C113.513 11.0015 113.39 13.6903 113.451 16.3487C113.482 16.6542 113.788 16.7153 114.033 16.6848C116.329 16.6542 118.594 16.3792 120.89 16.5931C121.349 16.532 122.849 17.0209 122.788 16.3487Z" fill="#713588"/>
<path d="M50.1456 3.41557C50.115 3.26279 50.2068 2.89612 49.9619 2.92668C49.166 2.89612 48.3701 2.92668 47.5742 2.92668C47.2986 2.92668 47.2987 2.92668 47.2987 3.20168C47.3599 4.79057 47.4823 6.37946 47.4211 7.9989C47.2374 9.52668 47.7272 11.2989 46.717 12.5822C45.8905 13.2545 44.4517 13.1322 44.0231 12.1545C43.4721 9.22113 43.9619 6.13502 43.8088 3.14057C43.9925 2.46835 41.8497 3.01835 41.3905 2.89613C40.7476 2.86557 40.8395 2.80446 40.8395 3.41557C40.8701 5.03501 40.9313 6.65446 40.8701 8.2739C40.8701 10.7795 40.166 14.2628 42.8599 15.6378C45.064 16.6767 48.1558 16.31 49.166 13.8656C50.7884 10.6878 49.9619 6.86835 50.1456 3.41557Z" fill="#3E3883"/>
<path d="M97.7174 11.9789C96.8602 11.7956 96.0031 11.6122 95.146 11.3984C94.4725 11.2456 94.4725 12.04 94.197 12.4372C91.6868 14.2706 91.6562 6.57057 92.7276 5.56224C93.2786 4.92057 94.2276 5.34835 94.6255 5.95946C95.0235 6.50946 95.0541 6.50947 95.6051 6.08169C96.1562 5.68447 96.6153 5.22613 97.197 4.89002C97.8704 4.24835 95.697 2.41502 95.0541 2.20113C91.2888 0.765019 87.8909 3.69835 87.9521 7.54835C87.646 10.8789 88.2582 15.2178 91.748 16.6234C91.7786 16.6845 91.8092 16.6845 91.8704 16.6845C92.0541 16.8067 92.2684 16.8678 92.4827 16.8678C94.9317 17.4484 97.2888 15.9511 97.9623 13.5372C98.0847 13.0789 98.4827 12.1011 97.7174 11.9789Z" fill="#3E3883"/>
<path d="M108.554 17.9375H102.064C100.717 17.9375 99.6152 16.8375 99.6152 15.4931V2.50694C99.6152 1.1625 100.717 0.0625 102.064 0.0625H108.554C109.901 0.0625 111.003 1.1625 111.003 2.50694V15.4931C111.003 16.8375 109.901 17.9375 108.554 17.9375Z" fill="#336934"/>
<path d="M105.31 16.043C104.545 16.0124 104.545 17.3263 105.31 17.2958C106.076 17.3263 106.076 16.0124 105.31 16.043Z" fill="#F8F8FA"/>
<path d="M109.29 2.69043H101.3C100.963 2.69043 100.688 2.96543 100.688 3.30154V15.1265C100.688 15.4627 100.963 15.7377 101.3 15.7377H109.29C109.626 15.7377 109.902 15.4627 109.902 15.1265V3.30154C109.871 2.96543 109.596 2.69043 109.29 2.69043Z" fill="#FFD400"/>
<path d="M106.534 1.68195H104.268C104.207 1.68195 104.115 1.62084 104.115 1.55973C104.115 1.49861 104.176 1.4375 104.268 1.4375H106.534C106.595 1.4375 106.687 1.49861 106.687 1.55973C106.656 1.62084 106.595 1.68195 106.534 1.68195Z" fill="#D2DACE"/>
</svg>
