<svg width="19" height="17" viewBox="0 0 19 17" fill="none" xmlns="http://www.w3.org/2000/svg">
<path d="M13.135 0.5C11.569 0.5 10.066 1.20627 9.08496 2.32234C8.10396 1.20627 6.60096 0.5 5.03496 0.5C2.26296 0.5 0.0849609 2.61008 0.0849609 5.29564C0.0849609 8.59155 3.14496 11.2771 7.77996 15.3578L9.08496 16.5L10.39 15.349C15.025 11.2771 18.085 8.59155 18.085 5.29564C18.085 2.61008 15.907 0.5 13.135 0.5ZM9.17496 14.0586L9.08496 14.1458L8.99496 14.0586C4.71096 10.3005 1.88496 7.81553 1.88496 5.29564C1.88496 3.55177 3.23496 2.24387 5.03496 2.24387C6.42096 2.24387 7.77096 3.10708 8.24796 4.30163H9.93096C10.399 3.10708 11.749 2.24387 13.135 2.24387C14.935 2.24387 16.285 3.55177 16.285 5.29564C16.285 7.81553 13.459 10.3005 9.17496 14.0586Z" fill="#2670E8"/>
</svg>
