<svg width="16" height="16" viewBox="0 0 16 16" fill="none" xmlns="http://www.w3.org/2000/svg">
<path d="M7.3 12.2002H8.7V10.8002H7.3V12.2002ZM8 1C4.136 1 1 4.13607 1 8.00016C1 11.8642 4.136 15.0003 8 15.0003C11.864 15.0003 15 11.8642 15 8.00016C15 4.13607 11.864 1 8 1ZM8 13.6003C4.913 13.6003 2.4 11.0872 2.4 8.00016C2.4 4.91309 4.913 2.40003 8 2.40003C11.087 2.40003 13.6 4.91309 13.6 8.00016C13.6 11.0872 11.087 13.6003 8 13.6003ZM8 3.80006C6.453 3.80006 5.2 5.05309 5.2 6.60012H6.6C6.6 5.83011 7.23 5.20009 8 5.20009C8.77 5.20009 9.4 5.83011 9.4 6.60012C9.4 8.00016 7.3 7.82515 7.3 10.1002H8.7C8.7 8.52517 10.8 8.35016 10.8 6.60012C10.8 5.05309 9.547 3.80006 8 3.80006Z" fill="#2670E8"/>
</svg>
